<svg version="1.1" xmlns="http://www.w3.org/2000/svg" xmlns:xlink="http://www.w3.org/1999/xlink" viewBox="0 0 226 226"><g fill="none" fill-rule="nonzero" stroke="none" stroke-width="1" stroke-linecap="butt" stroke-linejoin="miter" stroke-miterlimit="10" stroke-dasharray="" stroke-dashoffset="0" font-family="none" font-weight="none" font-size="none" text-anchor="none" style="mix-blend-mode: normal"><path d="M0,226v-226h226v226z" fill="none"></path><g><path d="M178.54,176.28l0.35708,-79.1h0.9718c2.88828,-1.47578 4.63526,-3.95952 4.63526,-7.6501c0,-0.89722 -0.01808,-1.70856 -0.0452,-2.6894l-4.6782,-33.38472l1.01926,-6.20144c0,-2.373 -2.06338,-4.31434 -4.58328,-4.31434h-126.43344c-2.5199,0 -4.58328,1.94134 -4.58328,4.31434l0.91982,3.84878l-5.71102,35.4255c-0.00226,0 -0.00452,0 -0.00678,0c0,0.0113 0,0.0226 -0.00226,0.03164l-0.0113,0.2825c-0.03616,0.80004 -0.05876,1.65206 -0.05876,2.60126c0,3.8872 1.69726,6.48394 4.86804,7.684l0.00226,-2.20802v81.36h-4.52v6.78h144.64v-6.78z" fill="#fefdef"></path><path d="M185.32,185.32h-144.64c-1.24752,0 -2.26,-1.01248 -2.26,-2.26v-6.78c0,-1.24752 1.01248,-2.26 2.26,-2.26h2.26v-75.45688c-3.15496,-1.76732 -4.8703,-4.9494 -4.8703,-9.1191c0,-0.98536 0.02486,-1.87354 0.06102,-2.70296l0.0113,-0.26668c0.00452,-0.13108 0.02034,-0.2599 0.04746,-0.3842l5.62514,-34.89892l-0.8136,-3.40808c-0.03842,-0.17628 -0.06102,-0.35256 -0.06102,-0.52884c0,-3.62504 3.07134,-6.57434 6.84328,-6.57434h126.43344c3.7742,0 6.84328,2.9493 6.84328,6.57434c0,0.1243 -0.00904,0.24634 -0.02938,0.36838l-0.96728,5.86244l4.62848,33.04346c0.0113,0.08136 0.01808,0.16498 0.02034,0.24634c0.02938,1.00344 0.04746,1.83512 0.04746,2.75494c0,4.26236 -2.712,7.6501 -6.3845,9.6276l-0.00226,74.95516l4.94714,-0.09266c1.24752,0 2.26,1.01248 2.26,2.26v6.78c0,1.24752 -1.01248,2.26 -2.26,2.26zM42.94,180.8h140.12v-2.26h-4.52c-0.60116,0 -1.17746,-0.23956 -1.60008,-0.66444c-0.42488,-0.42488 -0.65992,-1.00344 -0.65992,-1.6046l0.35708,-79.1c0.00452,-1.24526 1.017,-2.25096 2.26,-2.25096h0.39324c2.0114,-1.18424 2.95156,-2.91088 2.95156,-5.3901c0,-0.8362 -0.01582,-1.59782 -0.04294,-2.4973l-4.66012,-33.26042c-0.03164,-0.226 -0.02938,-0.45652 0.00678,-0.68026l0.98762,-5.98222c-0.08814,-1.0509 -1.11418,-1.9097 -2.3165,-1.9097h-126.43344c-1.17746,0 -2.18542,0.8249 -2.30972,1.8419l0.84524,3.53464c0.07006,0.28928 0.08136,0.58986 0.0339,0.88592l-5.70198,35.46844c-0.03616,0.78196 -0.0565,1.60234 -0.0565,2.51312c0,1.80122 0.42714,3.01484 1.03508,3.85556c0.40454,-0.3955 0.95824,-0.63958 1.5707,-0.63958v0c1.24752,0 1.7628,1.01248 1.7628,2.26v81.36c0,1.24752 -0.51754,2.26 -1.76506,2.26h-2.26v2.26z" fill="#1f212b"></path><path d="M148.03,157.07h-81.36v-13.56h92.66v13.56h-4.52" fill="#ceccbe"></path><path d="M159.33,158.2h-4.52c-0.62376,0 -1.13,-0.50624 -1.13,-1.13c0,-0.62376 0.50624,-1.13 1.13,-1.13h3.39v-11.3h-90.4v11.3h80.23c0.62376,0 1.13,0.50624 1.13,1.13c0,0.62376 -0.50624,1.13 -1.13,1.13h-81.36c-0.62376,0 -1.13,-0.50624 -1.13,-1.13v-13.56c0,-0.62376 0.50624,-1.13 1.13,-1.13h92.66c0.62376,0 1.13,0.50624 1.13,1.13v13.56c0,0.62376 -0.50624,1.13 -1.13,1.13z" fill="#1f212b"></path><path d="M154.81,89.27v54.24h-83.62v-54.24" fill="#a1dbe2"></path><path d="M154.81,144.64h-83.62c-0.62376,0 -1.13,-0.50624 -1.13,-1.13v-54.24c0,-0.62376 0.50624,-1.13 1.13,-1.13c0.62376,0 1.13,0.50624 1.13,1.13v53.11h81.36v-53.11c0,-0.62376 0.50624,-1.13 1.13,-1.13c0.62376,0 1.13,0.50624 1.13,1.13v54.24c0,0.62376 -0.50624,1.13 -1.13,1.13z" fill="#1f212b"></path><path d="M77.97,132.21h20.34v11.3h-20.34z" fill="#8786c0"></path><path d="M98.31,144.64h-20.34c-0.62376,0 -1.13,-0.50624 -1.13,-1.13v-11.3c0,-0.62376 0.50624,-1.13 1.13,-1.13h20.34c0.62376,0 1.13,0.50624 1.13,1.13v11.3c0,0.62376 -0.50624,1.13 -1.13,1.13zM79.1,142.38h18.08v-9.04h-18.08z" fill="#1f212b"></path><path d="M127.69,132.21h20.34v11.3h-20.34z" fill="#f0648a"></path><path d="M148.03,144.64h-20.34c-0.62376,0 -1.13,-0.50624 -1.13,-1.13v-11.3c0,-0.62376 0.50624,-1.13 1.13,-1.13h20.34c0.62376,0 1.13,0.50624 1.13,1.13v11.3c0,0.62376 -0.50624,1.13 -1.13,1.13zM128.82,142.38h18.08v-9.04h-18.08z" fill="#1f212b"></path><path d="M80.23,120.91h15.82v11.3h-15.82z" fill="#a3a3cd"></path><path d="M96.05,133.34h-15.82c-0.62376,0 -1.13,-0.50624 -1.13,-1.13v-11.3c0,-0.62376 0.50624,-1.13 1.13,-1.13h15.82c0.62376,0 1.13,0.50624 1.13,1.13v11.3c0,0.62376 -0.50624,1.13 -1.13,1.13zM81.36,131.08h13.56v-9.04h-13.56z" fill="#1f212b"></path><path d="M129.95,120.91h13.56v11.3h-13.56z" fill="#f37e98"></path><path d="M143.51,133.34h-13.56c-0.62376,0 -1.13,-0.50624 -1.13,-1.13v-11.3c0,-0.62376 0.50624,-1.13 1.13,-1.13h13.56c0.62376,0 1.13,0.50624 1.13,1.13v11.3c0,0.62376 -0.50624,1.13 -1.13,1.13zM131.08,131.08h11.3v-9.04h-11.3z" fill="#1f212b"></path><path d="M118.28614,142.90206c1.32888,-1.2882 2.15152,-3.06682 2.15152,-5.03076c0,-2.76172 -1.64302,-5.1302 -4.01602,-6.30992c0.6893,-0.75936 0.6441,-5.0398 -0.1243,-5.81272h-6.40936c-0.7684,0.77518 -0.8136,5.05336 -0.1243,5.81272c-2.37526,1.17972 -4.01602,3.54594 -4.01602,6.30992c0,1.96394 0.82264,3.74482 2.15152,5.03076" fill="#ceccbe"></path><path d="M107.89918,144.03206c-0.2825,0 -0.56726,-0.10622 -0.78648,-0.31866c-1.60686,-1.55714 -2.49504,-3.63408 -2.49504,-5.8421c0,-2.75946 1.41476,-5.28614 3.7516,-6.81164c-0.46104,-1.9549 -0.19662,-5.18444 0.71416,-6.10652c0.21244,-0.2147 0.50172,-0.33448 0.8023,-0.33448h6.40936c0.30058,0 0.58986,0.11978 0.8023,0.33448c0.91304,0.92208 1.17746,4.15162 0.71416,6.10652c2.33684,1.52324 3.7516,4.05218 3.7516,6.81164c0,2.21028 -0.88592,4.28496 -2.49504,5.84436c-0.44522,0.43392 -1.16164,0.42488 -1.59782,-0.02712c-0.43392,-0.44748 -0.42262,-1.1639 0.02712,-1.59782c1.16616,-1.13 1.808,-2.62838 1.808,-4.21942c0,-2.22836 -1.2995,-4.25784 -3.39,-5.29744c-0.31866,-0.1582 -0.5424,-0.45426 -0.60794,-0.8023c-0.06554,-0.34804 0.03616,-0.70512 0.27346,-0.96954c0.27572,-0.52658 0.26894,-2.87924 0.00904,-3.92562h-5.02398c-0.2373,0.99214 -0.24182,3.4013 0.08136,3.99116c0.2373,0.26216 0.31414,0.5876 0.2486,0.9379c-0.06554,0.34804 -0.3164,0.61246 -0.6328,0.7684c-2.0905,1.03734 -3.39,3.06682 -3.39,5.29744c0,1.5933 0.64184,3.09168 1.808,4.22168c0.44748,0.43392 0.45878,1.15034 0.02486,1.59782c-0.21696,0.22826 -0.51076,0.34126 -0.80682,0.34126z" fill="#1f212b"></path><g><path d="M57.63,55.37h-10.79602l-5.51214,30.50096c-0.00226,0 -0.04746,0.00904 -0.04972,0.00904c0,0.00904 0,-0.00904 0,0v0v0c-0.03164,0.70738 -0.05424,1.46222 -0.05424,2.30294v0c0,4.3279 3.24988,7.86706 7.2207,7.86706h1.24978c3.97082,0 7.94164,-3.54142 7.94164,-7.86706v0c0,-0.83168 0.02712,-1.59556 0,-2.30294v0z" fill="#f15b6c"></path><path d="M49.68836,97.18h-1.24978c-4.60362,0 -8.3507,-4.03636 -8.3507,-8.99706c0,-0.8588 0.02034,-1.62946 0.05424,-2.35492c0.00678,-0.16498 0.04972,-0.32318 0.12204,-0.46104l5.4579,-30.19812c0.09718,-0.53788 0.565,-0.92886 1.11192,-0.92886h10.79602c0.62376,0 1.13,0.50624 1.13,1.13v30.51c0.01808,0.43844 0.0113,0.94694 0.00678,1.48482l-0.00678,0.81812c0,4.79346 -4.2375,8.99706 -9.07164,8.99706zM42.3863,86.24612c-0.02486,0.60116 -0.03842,1.23848 -0.03842,1.93682c0,3.71544 2.73234,6.73706 6.0907,6.73706h1.24978c3.21598,0 6.81164,-2.8815 6.81164,-6.73706l0.00678,-0.84524c0.00452,-0.4972 0.0113,-0.96728 -0.00452,-1.4125l-0.00226,-29.4252h-8.72134l-5.3449,29.5721c-0.0113,0.06102 -0.02712,0.11978 -0.04746,0.17402z" fill="#1f212b"></path></g><g><path d="M73.45,55.37h-15.82v29.97438c0,0 0,1.54584 0,2.42272c0,4.5539 3.49622,8.28064 7.77214,8.28064h1.01926c4.11998,0 7.03086,-3.54142 7.03086,-7.86706c-0.00226,-0.83168 -0.00226,-32.81068 -0.00226,-32.81068z" fill="#fefdef"></path><path d="M66.41914,97.18h-1.017c-4.90872,0 -8.90214,-4.22168 -8.90214,-9.4129v-32.3971c0,-0.62376 0.50624,-1.13 1.13,-1.13h15.82c0.62376,0 1.13,0.50624 1.13,1.13v32.81294c0,5.1302 -3.50752,8.99706 -8.16086,8.99706zM58.76,56.5v31.2671c0,3.94596 2.97868,7.1529 6.64214,7.1529h1.017c3.36288,0 5.90086,-2.89732 5.90086,-6.73706v-31.68294z" fill="#1f212b"></path></g><g><path d="M89.27,55.37h-15.82v29.97438c0,0 0,1.54584 0,2.42272c0,4.5539 3.49622,8.28064 7.77214,8.28064h1.01926c4.11998,0 7.03086,-3.54142 7.03086,-7.86706c0,-0.83168 0.02938,-1.59556 0,-2.30294v0v-30.50774z" fill="#f15b6c"></path><path d="M82.23914,97.18h-1.017c-4.90872,0 -8.90214,-4.22168 -8.90214,-9.4129v-32.3971c0,-0.62376 0.50624,-1.13 1.13,-1.13h15.82c0.62376,0 1.13,0.50624 1.13,1.13v30.51c0.01808,0.43844 0.01356,0.94694 0.00678,1.48482l-0.00678,0.81812c0,5.1302 -3.50752,8.99706 -8.16086,8.99706zM74.58,56.5v31.2671c0,3.94596 2.97868,7.1529 6.64214,7.1529h1.017c3.36288,0 5.90086,-2.89732 5.90086,-6.73706l0.00678,-0.84524c0.00678,-0.4972 0.0113,-0.96502 -0.00452,-1.4125l-0.00226,-29.4252z" fill="#1f212b"></path></g><g><path d="M105.09,55.37h-15.82v29.97438c0,0 0,1.54584 0,2.42272c0,4.5539 3.49622,8.28064 7.77214,8.28064h1.01926c4.11998,0 7.03086,-3.54142 7.03086,-7.86706c0,-0.83168 0.02938,-1.59556 0,-2.30294v0v-30.50774z" fill="#fefdef"></path><path d="M98.05914,97.18h-1.017c-4.90872,0 -8.90214,-4.22168 -8.90214,-9.4129v-32.3971c0,-0.62376 0.50624,-1.13 1.13,-1.13h15.82c0.62376,0 1.13,0.50624 1.13,1.13v30.51c0.01808,0.43844 0.01356,0.94694 0.00678,1.48482l-0.00678,0.81812c0,5.1302 -3.50752,8.99706 -8.16086,8.99706zM90.4,56.5v31.2671c0,3.94596 2.97868,7.1529 6.64214,7.1529h1.017c3.36288,0 5.90086,-2.89732 5.90086,-6.73706l0.00678,-0.84524c0.00678,-0.4972 0.0113,-0.96502 -0.00452,-1.4125l-0.00226,-29.4252z" fill="#1f212b"></path></g><g><path d="M120.91,55.37h-15.82v29.97438c0,0 0,1.54584 0,2.42272c0,4.5539 3.49622,8.28064 7.77214,8.28064h1.01926c4.11998,0 7.03086,-3.54142 7.03086,-7.86706c-0.00226,-0.83168 -0.00226,-32.81068 -0.00226,-32.81068z" fill="#f15b6c"></path><path d="M113.87914,97.18h-1.017c-4.90872,0 -8.90214,-4.22168 -8.90214,-9.4129v-32.3971c0,-0.62376 0.50624,-1.13 1.13,-1.13h15.82c0.62376,0 1.13,0.50624 1.13,1.13v32.81294c0,5.1302 -3.50752,8.99706 -8.16086,8.99706zM106.22,56.5v31.2671c0,3.94596 2.97868,7.1529 6.64214,7.1529h1.017c3.36288,0 5.90086,-2.89732 5.90086,-6.73706v-31.68294z" fill="#1f212b"></path></g><g><path d="M136.73,55.37h-15.82v29.97438c0,0 0,1.54584 0,2.42272c0,4.5539 3.49622,8.28064 7.77214,8.28064h1.01926c4.11998,0 7.03086,-3.59792 7.03086,-7.92356c0,-0.83168 0.02938,-1.53906 0,-2.24644v0v-30.50774z" fill="#fefdef"></path><path d="M129.69914,97.18h-1.017c-4.90872,0 -8.90214,-4.22168 -8.90214,-9.4129v-32.3971c0,-0.62376 0.50624,-1.13 1.13,-1.13h15.82c0.62376,0 1.13,0.50624 1.13,1.13v30.51c0.01808,0.43618 0.01356,0.91982 0.00678,1.43736l-0.00678,0.80908c0,5.07596 -3.58436,9.05356 -8.16086,9.05356zM122.04,56.5v31.2671c0,3.94596 2.97868,7.1529 6.64214,7.1529h1.017c3.36288,0 5.90086,-2.91992 5.90086,-6.79356l0.00678,-0.8362c0.00678,-0.47686 0.0113,-0.91982 -0.00452,-1.36504l-0.00226,-29.4252z" fill="#1f212b"></path></g><g><path d="M152.55,55.37h-15.82v29.97438c0,0 0,1.02604 0,1.57974c0,5.01946 3.50074,9.12362 7.78118,9.12362h1.01926c4.12676,0 7.02634,-4.00472 7.02634,-8.77106c0,-0.52658 0.00226,-0.91756 -0.00904,-1.39894v0v-30.50774z" fill="#f15b6c"></path><path d="M145.53044,97.18h-1.01926c-4.91324,0 -8.91118,-4.60136 -8.91118,-10.25588v-31.55412c0,-0.62376 0.50624,-1.13 1.13,-1.13h15.82c0.62376,0 1.13,0.50624 1.13,1.13v30.51c0.00904,0.38872 0.00678,0.73676 0.00678,1.15712v0.23956c0,5.55508 -3.5821,9.90332 -8.15634,9.90332zM137.86,56.5v30.42412c0,4.40926 2.9832,7.99588 6.65118,7.99588h1.01926c3.30638,0 5.89634,-3.3561 5.89634,-7.64106v-0.24182c0,-0.40454 0,-0.73676 -0.00678,-1.13226v-29.40486z" fill="#1f212b"></path></g><g><path d="M168.37,55.37h-15.82v29.97438c0,0 0,1.54584 0,2.42272c0,4.5539 3.49622,8.28064 7.77214,8.28064h1.01926c4.11998,0 7.03086,-3.54142 7.03086,-7.86706c0,-0.83168 0.02938,-1.59556 0,-2.30294v0v-30.50774z" fill="#fefdef"></path><path d="M161.33914,97.18h-1.017c-4.90872,0 -8.90214,-4.22168 -8.90214,-9.4129v-32.3971c0,-0.62376 0.50624,-1.13 1.13,-1.13h15.82c0.62376,0 1.13,0.50624 1.13,1.13v30.51c0.01808,0.43844 0.01356,0.94694 0.00678,1.48482l-0.00678,0.81812c0,5.1302 -3.50752,8.99706 -8.16086,8.99706zM153.68,56.5v31.2671c0,3.94596 2.97868,7.1529 6.64214,7.1529h1.017c3.36288,0 5.90086,-2.89732 5.90086,-6.73706l0.00678,-0.84524c0.00678,-0.4972 0.0113,-0.96502 -0.00452,-1.4125l-0.00226,-29.4252z" fill="#1f212b"></path></g><g><path d="M184.01598,85.88v0l-4.93132,-30.51h-10.71466v29.38h0.0565c-0.03616,0.78422 -0.0565,1.63172 -0.0565,2.55832v0c0,4.80702 3.60922,8.74168 8.023,8.74168h0.44748c3.97082,0 7.2207,-3.54142 7.2207,-7.86706v0c0,-0.8362 -0.01808,-1.59556 -0.0452,-2.30294z" fill="#f15b6c"></path><path d="M176.84048,97.18h-0.44748c-5.04658,0 -9.153,-4.42734 -9.153,-9.87168c0,-0.81134 0.01582,-1.56166 0.04294,-2.26452c-0.02938,-0.09492 -0.04294,-0.1921 -0.04294,-0.2938v-29.38c0,-0.62376 0.50624,-1.13 1.13,-1.13h10.71466c0.5537,0 1.0283,0.40228 1.11644,0.9492l4.93132,30.51c0.00678,0.0452 0.0113,0.0904 0.01356,0.1356c0.02938,0.72094 0.04746,1.49612 0.04746,2.34814c-0.00226,4.9607 -3.74934,8.99706 -8.35296,8.99706zM169.5,84.4336c0.04068,0.11752 0.05876,0.24182 0.05424,0.36838c-0.0339,0.7684 -0.05424,1.59782 -0.05424,2.50634c0,4.19682 3.09168,7.61168 6.893,7.61168h0.44748c3.35836,0 6.0907,-3.02162 6.0907,-6.73706c0,-0.79326 -0.01582,-1.5142 -0.04294,-2.18994l-4.76634,-29.493h-8.6219z" fill="#1f212b"></path></g><g fill="#1f212b"><path d="M184.19,88.14h-142.38c-0.62376,0 -1.13,-0.50624 -1.13,-1.13c0,-0.62376 0.50624,-1.13 1.13,-1.13h142.38c0.62376,0 1.13,0.50624 1.13,1.13c0,0.62376 -0.50624,1.13 -1.13,1.13z"></path></g><g fill="#1f212b"><path d="M170.63,178.54h-2.26c-0.62376,0 -1.13,-0.50624 -1.13,-1.13c0,-0.62376 0.50624,-1.13 1.13,-1.13h2.26c0.62376,0 1.13,0.50624 1.13,1.13c0,0.62376 -0.50624,1.13 -1.13,1.13z"></path></g><g fill="#1f212b"><path d="M161.59,178.54c-0.2938,0 -0.5876,-0.113 -0.791,-0.339c-0.113,-0.0904 -0.2034,-0.226 -0.2486,-0.3616c-0.0678,-0.1356 -0.0904,-0.2712 -0.0904,-0.4294c0,-0.2938 0.113,-0.5876 0.339,-0.791c0.4068,-0.4294 1.1752,-0.4294 1.582,0c0.226,0.2034 0.339,0.4972 0.339,0.791c0,0.1582 -0.0226,0.2938 -0.0904,0.4294c-0.0452,0.1356 -0.1356,0.2712 -0.2486,0.3616c-0.2034,0.226 -0.4972,0.339 -0.791,0.339z"></path></g><g fill="#1f212b"><path d="M157.07,178.54h-110.74c-0.62376,0 -1.13,-0.50624 -1.13,-1.13c0,-0.62376 0.50624,-1.13 1.13,-1.13h110.74c0.62376,0 1.13,0.50624 1.13,1.13c0,0.62376 -0.50624,1.13 -1.13,1.13z"></path></g></g></g></svg>